<svg width="26" height="26" viewBox="0 0 26 26" fill="none" xmlns="http://www.w3.org/2000/svg">
<circle cx="13" cy="13" r="12.5" stroke="white"/>
<g clip-path="url(#clip0)">
<path d="M19 10.0893C18.5909 10.2688 18.1551 10.3877 17.7006 10.4454C18.1681 10.1663 18.5249 9.72769 18.6927 9.199C18.2568 9.45887 17.7756 9.64244 17.2627 9.74488C16.8488 9.30419 16.2589 9.03125 15.6154 9.03125C14.3669 9.03125 13.3618 10.0446 13.3618 11.2869C13.3618 11.4657 13.3769 11.6376 13.4141 11.8012C11.5392 11.7097 9.88031 10.8112 8.76587 9.44238C8.57131 9.77994 8.45719 10.1663 8.45719 10.5822C8.45719 11.3633 8.85938 12.0556 9.45887 12.4564C9.09656 12.4495 8.74112 12.3443 8.44 12.1786C8.44 12.1855 8.44 12.1944 8.44 12.2034C8.44 13.2992 9.22169 14.2095 10.2467 14.4192C10.0632 14.4694 9.86312 14.4934 9.6555 14.4934C9.51112 14.4934 9.36537 14.4852 9.22856 14.4549C9.52075 15.348 10.3499 16.0046 11.3358 16.0259C10.5685 16.6261 9.59431 16.9877 8.53969 16.9877C8.35475 16.9877 8.17737 16.9794 8 16.9567C8.99894 17.6009 10.1828 17.9688 11.4595 17.9688C15.6093 17.9688 17.878 14.5312 17.878 11.5516C17.878 11.4519 17.8746 11.3557 17.8698 11.2601C18.3173 10.9425 18.6934 10.5458 19 10.0893Z" fill="white"/>
</g>
<defs>
<clipPath id="clip0">
<rect width="11" height="11" fill="white" transform="translate(8 8)"/>
</clipPath>
</defs>
</svg>
