<svg width="147" height="43" viewBox="0 0 147 43" fill="none" xmlns="http://www.w3.org/2000/svg">
<path d="M48.6376 8.90748V18.8944L46.8417 17.5227L40.3664 12.5737V18.8944H38.5706V8.93711L40.3664 10.3088L46.8375 15.262V8.89478L48.6376 8.90748Z" fill="white"/>
<path d="M60.1378 15.7023C60.1378 17.4592 58.7003 18.8859 56.93 18.8859H50.0708V8.89478H56.4096C57.9069 8.89478 59.1269 10.1098 59.1269 11.5915C59.1269 12.1334 58.969 12.633 58.696 13.0479C59.5662 13.6152 60.1378 14.5889 60.1378 15.7023ZM51.8709 12.506H56.4309C56.9343 12.506 57.3523 12.0911 57.3523 11.5915C57.3523 11.092 56.9343 10.6771 56.4309 10.6771H51.8709V12.506ZM56.9343 17.0867C57.7107 17.0867 58.342 16.4601 58.342 15.6896C58.342 14.9191 57.7107 14.2925 56.9343 14.2925H51.8709V17.1036H56.9343V17.0867Z" fill="white"/>
<path d="M61.217 18.8817V8.89478H63.0129V18.8817H61.217Z" fill="white"/>
<path d="M74.5047 8.9075V10.6898H70.3798V18.8944H68.5839V10.6898H64.459V8.9075H74.5047Z" fill="white"/>
<path d="M48.6204 22.2184V24.0007H44.4955V32.2053H42.6996V24.0049H38.5747V22.2226H48.6204V22.2184Z" fill="white"/>
<path d="M51.871 24.9017V25.8289H58.342V27.6112H51.871V29.4951C51.871 29.9947 52.289 30.4096 52.7923 30.4096H60.1379V32.1919H52.7923C51.2993 32.1919 50.0879 30.9769 50.0879 29.4951V24.9017C50.0879 23.4158 51.2951 22.205 52.7923 22.205H60.1379V23.9873H52.7923C52.289 23.9873 51.871 24.4022 51.871 24.9017Z" fill="white"/>
<path d="M62.4412 27.2006C62.4412 28.9702 63.8916 30.4096 65.6746 30.4096H70.7081V32.1919H65.6746C62.9019 32.1919 60.6411 29.9524 60.6411 27.1963C60.6411 24.4403 62.8977 22.2008 65.6746 22.2008H70.7081V23.9831H65.6746C63.8916 23.9873 62.4412 25.431 62.4412 27.2006Z" fill="white"/>
<path d="M82.2127 22.205V32.1919H80.4168V27.6112H73.9458V32.1919H72.1499V22.205H73.9458V25.8289H80.4168V22.205H82.2127Z" fill="white"/>
<path d="M93.7173 22.2177V32.2046L91.9215 30.8329L85.4504 25.8797V32.2004H83.6545V22.2473L85.4504 23.619L91.9215 28.5722V22.205L93.7173 22.2177Z" fill="white"/>
<path d="M104.859 27.2006C104.859 29.9566 102.603 32.1961 99.8258 32.1961C97.0531 32.1961 94.7922 29.9566 94.7922 27.2006C94.7922 24.4445 97.0488 22.205 99.8258 22.205C102.603 22.205 104.859 24.4445 104.859 27.2006ZM103.063 27.2006C103.063 25.4309 101.613 23.9915 99.83 23.9915C98.047 23.9915 96.5966 25.4309 96.5966 27.2006C96.5966 28.9702 98.047 30.4096 99.83 30.4096C101.613 30.4096 103.063 28.9702 103.063 27.2006Z" fill="white"/>
<path d="M114.235 30.4223V32.2046H109.129C108.626 32.2046 108.152 32.0903 107.722 31.8744C107.09 31.5611 106.57 31.0489 106.271 30.4181C106.054 29.9905 105.938 29.5206 105.938 29.021V22.2177H107.734V29.1946C107.82 29.8211 108.323 30.3207 108.959 30.4096L114.235 30.4223Z" fill="white"/>
<path d="M124.272 27.2006C124.272 29.9566 122.016 32.1961 119.239 32.1961C116.466 32.1961 114.205 29.9566 114.205 27.2006C114.205 24.4445 116.462 22.205 119.239 22.205C122.016 22.205 124.272 24.4445 124.272 27.2006ZM122.476 27.2006C122.476 25.4309 121.026 23.9915 119.243 23.9915C117.46 23.9915 116.01 25.4309 116.01 27.2006C116.01 28.9702 117.46 30.4096 119.243 30.4096C121.026 30.4096 122.476 28.9702 122.476 27.2006Z" fill="white"/>
<path d="M127.148 27.2006C127.148 28.9702 128.598 30.4096 130.381 30.4096H133.614V28.496H130.381V26.7137H135.414V32.1919H130.381C127.608 32.1919 125.347 29.9524 125.347 27.1963C125.347 24.4403 127.604 22.2008 130.381 22.2008H135.414V23.9831H130.381C128.602 23.9873 127.148 25.431 127.148 27.2006Z" fill="white"/>
<path d="M136.28 32.1919H136.31L136.28 32.2215V32.1919ZM146.343 22.1923L142.448 27.2006L142.235 27.4715V32.1792H140.439V27.4969L140.196 27.1963L136.302 22.188H138.575L141.335 25.74L144.095 22.188H146.343V22.1923ZM146.33 32.1919H146.343V32.2215L146.33 32.1919Z" fill="white"/>
<path d="M30.9008 15.1984L31.9245 13.3864L29.3779 13.4203C26.3152 10.3044 22.0409 8.36123 17.3145 8.36123C12.264 8.36123 7.72954 10.5796 4.63691 14.085V5.17761L0.447998 0V24.8381H0.460795C0.460795 24.9228 0.452264 25.0075 0.452264 25.0964C0.452264 29.4231 2.11588 33.3729 4.84166 36.3491L3.59608 38.5548L7.23471 38.5082C10.0501 40.5954 13.5394 41.8358 17.3145 41.8358C26.6138 41.8358 34.1768 34.3297 34.1768 25.1006C34.1768 21.392 32.9568 17.9714 30.9008 15.1984ZM4.64544 25.0964C4.64544 18.1619 10.3273 12.5228 17.3145 12.5228C20.5266 12.5228 23.4657 13.7167 25.7009 15.681L19.7247 26.2733L17.2762 22.1922L17.2676 22.2091L14.9769 18.3862L7.04276 32.45C5.53697 30.3756 4.64544 27.8397 4.64544 25.0964ZM17.3145 37.67C14.6058 37.67 12.0976 36.819 10.033 35.3796L14.9514 26.6586L19.8398 34.8081L28.5674 19.3345C29.4718 21.0618 29.9837 23.022 29.9837 25.1006C29.9837 32.0267 24.3018 37.67 17.3145 37.67Z" fill="white"/>
</svg>
