<svg width="94" height="94" viewBox="0 0 94 94" fill="none" xmlns="http://www.w3.org/2000/svg">
<circle cx="47" cy="47" r="47" fill="#DA1500"/>
<path d="M25.3117 53.6769L25.4612 53.8438L25.3117 54.0106C24.6518 54.7469 24.25 55.7178 24.25 56.7812V65.5938C24.25 67.8854 26.1147 69.75 28.4062 69.75H66.5938C68.8853 69.75 70.75 67.8854 70.75 65.5938V56.7812C70.75 55.7177 70.3483 54.7469 69.6883 54.0106L69.5388 53.8438L69.6883 53.6769C70.3482 52.9406 70.75 51.9697 70.75 50.9062V42.0938C70.75 41.0302 70.3483 40.0594 69.6883 39.3231L69.5388 39.1563L69.6883 38.9894C70.3482 38.2531 70.75 37.2822 70.75 36.2188V27.4062C70.75 25.1146 68.8853 23.25 66.5938 23.25H28.4062C26.1147 23.25 24.25 25.1146 24.25 27.4062V36.2188C24.25 37.2822 24.6518 38.2531 25.3117 38.9894L25.4612 39.1562L25.3117 39.3231C24.6518 40.0594 24.25 41.0303 24.25 42.0938V50.9062C24.25 51.9697 24.6518 52.9406 25.3117 53.6769ZM28.4062 67.3125C27.4583 67.3125 26.6875 66.5417 26.6875 65.5938V56.7812C26.6875 55.8333 27.4583 55.0625 28.4062 55.0625H66.5938C67.5417 55.0625 68.3125 55.8333 68.3125 56.7812V65.5938C68.3125 66.5417 67.5417 67.3125 66.5938 67.3125H28.4062ZM68.3125 42.0938V50.9062C68.3125 51.8542 67.5417 52.625 66.5938 52.625H28.4062C27.4583 52.625 26.6875 51.8542 26.6875 50.9062V42.0938C26.6875 41.1458 27.4583 40.375 28.4062 40.375H66.5938C67.5417 40.375 68.3125 41.1458 68.3125 42.0938ZM66.5938 25.6875C67.5417 25.6875 68.3125 26.4583 68.3125 27.4062V36.2188C68.3125 37.1667 67.5417 37.9375 66.5938 37.9375H28.4062C27.4583 37.9375 26.6875 37.1667 26.6875 36.2188V27.4062C26.6875 26.4583 27.4583 25.6875 28.4062 25.6875H66.5938Z" fill="white" stroke="#DA1500" stroke-width="0.5"/>
<path d="M64.875 59.7188C64.875 59.0456 64.3293 58.5 63.6562 58.5C62.9832 58.5 62.4375 59.0456 62.4375 59.7188V62.6562C62.4375 63.3294 62.9832 63.875 63.6562 63.875C64.3293 63.875 64.875 63.3294 64.875 62.6562V59.7188Z" fill="white" stroke="#DA1500" stroke-width="0.5"/>
<path d="M59 59.7188C59 59.0456 58.4543 58.5 57.7812 58.5C57.1082 58.5 56.5625 59.0456 56.5625 59.7188V62.6562C56.5625 63.3294 57.1082 63.875 57.7812 63.875C58.4543 63.875 59 63.3294 59 62.6562V59.7188Z" fill="white" stroke="#DA1500" stroke-width="0.5"/>
<path d="M51.9062 59.9688H40.1562C39.4832 59.9688 38.9375 60.5144 38.9375 61.1875C38.9375 61.8606 39.4832 62.4062 40.1562 62.4062H51.9062C52.5793 62.4062 53.125 61.8606 53.125 61.1875C53.125 60.5144 52.5793 59.9688 51.9062 59.9688Z" fill="white" stroke="#DA1500" stroke-width="0.5"/>
<path d="M35.5 46.5C35.5 45.0183 34.2942 43.8125 32.8125 43.8125C31.3308 43.8125 30.125 45.0183 30.125 46.5C30.125 47.9817 31.3308 49.1875 32.8125 49.1875C34.2942 49.1875 35.5 47.9817 35.5 46.5Z" fill="white" stroke="#DA1500" stroke-width="0.5"/>
<path d="M30.125 31.8125C30.125 33.2942 31.3308 34.5 32.8125 34.5C34.2942 34.5 35.5 33.2942 35.5 31.8125C35.5 30.3308 34.2942 29.125 32.8125 29.125C31.3308 29.125 30.125 30.3308 30.125 31.8125Z" fill="white" stroke="#DA1500" stroke-width="0.5"/>
<path d="M35.5 61.1875C35.5 59.7058 34.2942 58.5 32.8125 58.5C31.3308 58.5 30.125 59.7058 30.125 61.1875C30.125 62.6692 31.3308 63.875 32.8125 63.875C34.2942 63.875 35.5 62.6692 35.5 61.1875Z" fill="white" stroke="#DA1500" stroke-width="0.5"/>
<path d="M64.875 45.0312C64.875 44.3581 64.3293 43.8125 63.6562 43.8125C62.9832 43.8125 62.4375 44.3581 62.4375 45.0312V47.9688C62.4375 48.6419 62.9832 49.1875 63.6562 49.1875C64.3293 49.1875 64.875 48.6419 64.875 47.9688V45.0312Z" fill="white" stroke="#DA1500" stroke-width="0.5"/>
<path d="M59 45.0312C59 44.3581 58.4543 43.8125 57.7812 43.8125C57.1082 43.8125 56.5625 44.3581 56.5625 45.0312V47.9688C56.5625 48.6419 57.1082 49.1875 57.7812 49.1875C58.4543 49.1875 59 48.6419 59 47.9688V45.0312Z" fill="white" stroke="#DA1500" stroke-width="0.5"/>
<path d="M51.9062 45.2812H40.1562C39.4832 45.2812 38.9375 45.8269 38.9375 46.5C38.9375 47.1731 39.4832 47.7188 40.1562 47.7188H51.9062C52.5793 47.7188 53.125 47.1731 53.125 46.5C53.125 45.8269 52.5793 45.2812 51.9062 45.2812Z" fill="white" stroke="#DA1500" stroke-width="0.5"/>
<path d="M62.4375 33.2812C62.4375 33.9544 62.9832 34.5 63.6562 34.5C64.3293 34.5 64.875 33.9544 64.875 33.2812V30.3438C64.875 29.6706 64.3293 29.125 63.6562 29.125C62.9832 29.125 62.4375 29.6706 62.4375 30.3438V33.2812Z" fill="white" stroke="#DA1500" stroke-width="0.5"/>
<path d="M56.5625 33.2812C56.5625 33.9544 57.1082 34.5 57.7812 34.5C58.4543 34.5 59 33.9544 59 33.2812V30.3438C59 29.6706 58.4543 29.125 57.7812 29.125C57.1082 29.125 56.5625 29.6706 56.5625 30.3438V33.2812Z" fill="white" stroke="#DA1500" stroke-width="0.5"/>
<path d="M40.1562 33.0312H51.9062C52.5793 33.0312 53.125 32.4856 53.125 31.8125C53.125 31.1394 52.5793 30.5938 51.9062 30.5938H40.1562C39.4832 30.5938 38.9375 31.1394 38.9375 31.8125C38.9375 32.4856 39.4832 33.0312 40.1562 33.0312Z" fill="white" stroke="#DA1500" stroke-width="0.5"/>
</svg>
