<svg width="94" height="94" viewBox="0 0 94 94" fill="none" xmlns="http://www.w3.org/2000/svg">
<circle cx="47" cy="47" r="47" fill="#DA1500"/>
<g clip-path="url(#clip0)">
<path d="M33.3066 65.4517H34.8228V66.9678H33.3066V65.4517Z" fill="white"/>
<path d="M36.3386 65.4517H37.8548V66.9678H36.3386V65.4517Z" fill="white"/>
<path d="M39.3708 65.4517H40.887V66.9678H39.3708V65.4517Z" fill="white"/>
<path d="M75 62.282V58.0076L73.0867 57.6237C72.9427 57.1706 72.7606 56.7317 72.543 56.3115L73.6256 54.6869L70.6034 51.6647L68.9795 52.7481C68.5587 52.5297 68.1197 52.3476 67.6666 52.2036L67.2828 50.2903H63.629V41.0858C64.9331 40.7471 65.9032 39.5704 65.9032 38.1613V35.7353L62.1129 26.6386V23H31.7903V26.6386L28 35.7353V38.1613C28 39.5704 28.9702 40.7471 30.2742 41.0858V70H67.2828L67.6659 68.0867C68.1189 67.9435 68.5579 67.7606 68.9788 67.5422L70.6026 68.6256L73.6249 65.6034L72.5422 63.9788C72.7606 63.5579 72.942 63.1189 73.086 62.6666L75 62.282ZM57.7481 56.3115C57.5834 56.6284 57.4472 56.9582 57.325 57.2939C56.923 56.2009 56.0362 55.3321 54.8635 54.9797L49.9839 53.5165V52.1551C50.9118 51.3219 51.5 50.1175 51.5 48.7742V46.5C51.5 43.9915 49.4601 41.9516 46.9516 41.9516C44.4431 41.9516 42.4032 43.9915 42.4032 46.5V48.7742C42.4032 50.1167 42.9914 51.3212 43.9194 52.1551V53.5165L39.0397 54.9805C37.4244 55.465 36.3387 56.9241 36.3387 58.6116V62.4194H34.8226V41.0858C35.0665 41.1495 35.3175 41.1935 35.5806 41.1935C36.4905 41.1935 37.2985 40.7827 37.8548 40.146C38.4112 40.7827 39.2192 41.1935 40.129 41.1935C41.0389 41.1935 41.8469 40.7827 42.4032 40.146C42.9596 40.7827 43.7676 41.1935 44.6774 41.1935C45.5872 41.1935 46.3953 40.7827 46.9516 40.146C47.5079 40.7827 48.316 41.1935 49.2258 41.1935C50.1356 41.1935 50.9437 40.7827 51.5 40.146C52.0563 40.7827 52.8644 41.1935 53.7742 41.1935C54.684 41.1935 55.4921 40.7827 56.0484 40.146C56.6047 40.7827 57.4128 41.1935 58.3226 41.1935C58.5858 41.1935 58.8367 41.1495 59.0806 41.0858V52.2728L56.6654 54.6877L57.7481 56.3115ZM51.5 58.629V62.4194H42.4032V58.629H40.8871V62.4194H37.8548V58.6116C37.8548 57.5996 38.5059 56.7239 39.4757 56.4329L44.462 54.9372L46.9516 57.4268L49.442 54.9364L54.4275 56.4322C55.153 56.6498 55.6997 57.1947 55.9292 57.8795L55.2903 58.0083V62.2828L55.974 62.4194H53.0161V58.629H51.5ZM46.9516 51.8065C45.2793 51.8065 43.9194 50.4465 43.9194 48.7742V46.5C43.9194 44.8277 45.2793 43.4677 46.9516 43.4677C48.6239 43.4677 49.9839 44.8277 49.9839 46.5V48.7742C49.9839 50.4465 48.6239 51.8065 46.9516 51.8065ZM46.9516 53.3226C47.4839 53.3226 47.9925 53.2256 48.4677 53.0572V53.7668L46.9516 55.2829L45.4355 53.7668V53.0572C45.9108 53.2256 46.4193 53.3226 46.9516 53.3226ZM35.2871 27.5484L32.7597 35.129H29.8952L33.054 27.5484H35.2871ZM60.8492 27.5484L64.0081 35.129H61.1435L58.6161 27.5484H60.8492ZM59.8387 38.1613C59.8387 38.9975 59.1587 39.6774 58.3226 39.6774C57.4864 39.6774 56.8065 38.9975 56.8065 38.1613V36.6452H59.8387V38.1613ZM38.6129 36.6452H41.6452V38.1613C41.6452 38.9975 40.9652 39.6774 40.129 39.6774C39.2929 39.6774 38.6129 38.9975 38.6129 38.1613V36.6452ZM43.1613 36.6452H46.1935V38.1613C46.1935 38.9975 45.5136 39.6774 44.6774 39.6774C43.8413 39.6774 43.1613 38.9975 43.1613 38.1613V36.6452ZM47.7097 36.6452H50.7419V38.1613C50.7419 38.9975 50.062 39.6774 49.2258 39.6774C48.3896 39.6774 47.7097 38.9975 47.7097 38.1613V36.6452ZM52.2581 36.6452H55.2903V38.1613C55.2903 38.9975 54.6104 39.6774 53.7742 39.6774C52.938 39.6774 52.2581 38.9975 52.2581 38.1613V36.6452ZM59.5452 35.129H56.6192L54.7429 27.5484H57.0185L59.5452 35.129ZM53.1823 27.5484L55.0775 35.129H52.1974L51.5659 27.5484H53.1823ZM50.0446 27.5484L50.6783 35.129H47.7097V27.5484H50.0446ZM46.1935 35.129H43.2272L43.8587 27.5484H46.1935V35.129ZM41.7081 35.129H38.8257L40.7209 27.5484H42.3381L41.7081 35.129ZM37.263 35.129H34.358L36.8847 27.5484H39.1581L37.263 35.129ZM37.0968 36.6452V38.1613C37.0968 38.9975 36.4168 39.6774 35.5806 39.6774C34.7445 39.6774 34.0645 38.9975 34.0645 38.1613V36.6452H37.0968ZM60.5968 40.146C60.9917 40.5983 61.514 40.9304 62.1129 41.0858V52.3909C61.8401 52.4979 61.5717 52.6137 61.3115 52.7481L60.5968 52.271V40.146ZM62.871 39.6774C62.0348 39.6774 61.3548 38.9975 61.3548 38.1613V36.6452H64.3871V38.1613C64.3871 38.9975 63.7071 39.6774 62.871 39.6774ZM60.5968 24.5161V26.0323H33.3065V24.5161H60.5968ZM29.5161 38.1613V36.6452H32.5484V38.1613C32.5484 38.9975 31.8684 39.6774 31.0323 39.6774C30.1961 39.6774 29.5161 38.9975 29.5161 38.1613ZM31.7903 41.0858C32.3892 40.9304 32.9115 40.5983 33.3065 40.146V63.9355H57.7274C57.7344 63.9499 57.7403 63.9644 57.7474 63.9788L56.6647 65.6034L59.547 68.4839H31.7903V41.0858ZM59.9002 68.4839L61.3115 67.5422C61.7324 67.7606 62.1714 67.9427 62.6244 68.0867L62.704 68.4839H59.9002ZM71.8678 61.3626L71.7501 61.8256C71.5887 62.4612 71.3377 63.0667 71.005 63.6253L70.7603 64.0354L71.675 65.4083L70.4098 66.6735L69.0376 65.7592L68.6268 66.0035C68.0675 66.337 67.4619 66.588 66.8264 66.7494L66.3641 66.8671L66.0398 68.4839H64.2505L63.927 66.8678L63.4647 66.7501C62.8291 66.588 62.2236 66.3377 61.6643 66.0042L61.2534 65.7603L59.8813 66.6742L58.6161 65.409L59.5311 64.0362L59.2861 63.626C58.9533 63.0675 58.7024 62.4619 58.541 61.8264L58.4233 61.3633L56.8065 61.0406V59.2505L58.4225 58.9277L58.5402 58.4647C58.7016 57.8291 58.9526 57.2236 59.2853 56.665L59.53 56.2549L58.6154 54.882L59.8805 53.6168L61.2527 54.5311L61.6635 54.2868C62.2228 53.9533 62.8284 53.7024 63.4639 53.541L63.9263 53.4233L64.2505 51.8065H66.0398L66.3633 53.4225L66.8256 53.5402C67.4612 53.7024 68.0667 53.9526 68.626 54.2861L69.0369 54.53L70.409 53.6161L71.6742 54.8813L70.7592 56.2542L71.0042 56.6643C71.337 57.2228 71.588 57.8284 71.7494 58.4639L71.8671 58.927L73.4839 59.2498V61.0398L71.8678 61.3626Z" fill="white"/>
<path d="M65.1454 54.8389C64.0401 54.8389 62.9774 55.1794 62.0728 55.8235L62.9522 57.0586C63.5989 56.5982 64.3569 56.355 65.1454 56.355C67.2352 56.355 68.9357 58.0555 68.9357 60.1453C68.9357 60.9337 68.6925 61.6918 68.232 62.3384L69.4672 63.2179C70.1113 62.3125 70.4518 61.2506 70.4518 60.1453C70.4518 57.22 68.0714 54.8389 65.1454 54.8389Z" fill="white"/>
<path d="M65.1451 63.9357C63.0552 63.9357 61.3548 62.2352 61.3548 60.1454C61.3548 59.3569 61.5979 58.5989 62.0584 57.9522L60.8232 57.0728C60.1792 57.9781 59.8386 59.0401 59.8386 60.1454C59.8386 63.0706 62.219 65.4518 65.1451 65.4518C66.2503 65.4518 67.313 65.1113 68.2177 64.4672L67.3382 63.232C66.6916 63.6925 65.9335 63.9357 65.1451 63.9357Z" fill="white"/>
</g>
<defs>
<clipPath id="clip0">
<rect width="47" height="47" fill="white" transform="translate(28 23)"/>
</clipPath>
</defs>
</svg>
