<svg width="94" height="94" viewBox="0 0 94 94" fill="none" xmlns="http://www.w3.org/2000/svg">
<circle cx="47" cy="47" r="47" fill="#DA1500"/>
<g clip-path="url(#clip0)">
<path d="M69.8086 44.0444L61.942 33.8256C61.6508 33.4476 61.1198 33.3544 60.7171 33.6104L55.6382 36.8405H49.0141C48.9284 36.8405 48.843 36.8588 48.7606 36.8829L43.6246 38.3613L38.2954 36.9037L33.1171 33.6104C32.7212 33.3587 32.1998 33.4441 31.9054 33.8091L23.2044 44.5866C22.8918 44.9739 22.9434 45.5394 23.3206 45.8639L27.8811 49.7886L31.9725 55.3021C30.7759 56.5769 30.7992 58.5874 32.0442 59.8328C32.5961 60.3843 33.2978 60.6959 34.0196 60.7683C33.9945 60.9319 33.9816 61.0979 33.9816 61.2664C33.9816 62.1363 34.3205 62.9543 34.9354 63.5692C35.5508 64.1845 36.3687 64.5234 37.2386 64.5234C37.2504 64.5234 37.2619 64.5227 37.2734 64.5223C37.273 64.5446 37.272 64.5664 37.272 64.5887C37.272 65.4586 37.6108 66.2765 38.2258 66.8918C38.8411 67.5068 39.659 67.8457 40.529 67.8457C40.7007 67.8457 40.8707 67.8317 41.0374 67.8059C41.1081 68.5302 41.4204 69.2352 41.974 69.7888C42.6087 70.4239 43.4428 70.7412 44.2769 70.7412C45.1109 70.7412 45.945 70.4239 46.58 69.7888L47.0781 69.2907L47.2871 69.4593C47.9168 70.0692 48.7344 70.374 49.5519 70.374C50.386 70.374 51.2201 70.0567 51.8548 69.4216C52.5027 68.7737 52.8201 67.9185 52.8068 67.0675C53.6573 67.0805 54.5129 66.7635 55.1609 66.1159C55.8081 65.4683 56.1255 64.6138 56.1129 63.7632C56.999 63.7772 57.8395 63.4369 58.4666 62.8097C59.1146 62.1618 59.4319 61.3066 59.4187 60.4557C60.27 60.4686 61.1248 60.1516 61.7728 59.5036C62.8786 58.3978 63.021 56.6884 62.2009 55.4265L65.1883 49.17L69.6795 45.3052C70.0506 44.9857 70.1073 44.4321 69.8086 44.0444ZM32.8223 35.6074L36.5458 37.9751L28.4458 47.8433L25.2 45.0496L32.8223 35.6074ZM33.3476 56.5299L34.4714 55.4061C34.5055 55.372 34.5414 55.3398 34.5779 55.3096C34.7977 55.1304 35.0638 55.0235 35.3457 54.998C35.3535 54.9973 35.3618 54.9973 35.3697 54.997C35.4098 54.9937 35.45 54.9916 35.4905 54.9919C35.8756 54.9973 36.2335 55.1547 36.4989 55.4348C37.0195 55.9852 36.9915 56.8845 36.4365 57.4396L35.3467 58.5294C34.7956 59.0805 33.8988 59.0805 33.3476 58.5294C32.7965 57.9779 32.7965 57.081 33.3476 56.5299ZM36.2389 62.2658C35.9717 61.999 35.8247 61.644 35.8247 61.2664C35.8247 60.8888 35.9717 60.5338 36.2389 60.2667L38.418 58.0876C38.8354 57.6702 39.4916 57.5558 40.0252 57.81C40.5752 58.0722 40.8847 58.6692 40.804 59.2698C40.761 59.5904 40.6118 59.8923 40.383 60.1215L38.2383 62.2658C37.9712 62.5329 37.6162 62.6799 37.2386 62.6799C36.861 62.6799 36.506 62.5329 36.2389 62.2658ZM39.5292 65.588C39.2621 65.3212 39.1151 64.9663 39.1151 64.5887C39.1151 64.2111 39.2621 63.8561 39.5292 63.5889L41.708 61.4098C42.1544 60.9638 42.8705 60.8677 43.417 61.1857C43.9161 61.4762 44.1775 62.0463 44.0918 62.6143C44.0449 62.9266 43.8964 63.2203 43.673 63.4437L41.5287 65.588C41.2615 65.8552 40.9065 66.0022 40.529 66.0022C40.1514 66.0022 39.7964 65.8552 39.5292 65.588ZM43.2771 68.4854C42.726 67.9342 42.726 67.0374 43.2771 66.4863L44.4009 65.3625C44.435 65.3284 44.4705 65.2965 44.5071 65.2664C44.5081 65.2657 44.5089 65.265 44.5096 65.2642C44.6924 65.1158 44.9072 65.0165 45.1364 64.9731C45.1418 64.9723 45.1471 64.9716 45.1525 64.9709C45.192 64.9637 45.2321 64.958 45.2723 64.9544C45.2884 64.953 45.3045 64.953 45.321 64.9519C45.354 64.9501 45.3867 64.948 45.42 64.9483C45.8048 64.9537 46.163 65.1108 46.4283 65.3912C46.461 65.4256 46.4915 65.4615 46.5194 65.4984C46.9433 66.0524 46.8863 66.8753 46.3602 67.4017L45.2762 68.4857C44.7251 69.0369 43.8283 69.0365 43.2771 68.4854ZM60.4693 58.2002C59.9182 58.7517 59.0214 58.7513 58.4702 58.2002C58.4501 58.1801 58.429 58.1614 58.4075 58.1439L52.4816 52.1556C52.1233 51.7938 51.5399 51.7909 51.1781 52.1491C50.8163 52.507 50.8134 53.0904 51.1713 53.4522L57.1614 59.5047C57.1621 59.5054 57.1628 59.5061 57.1636 59.5068C57.7147 60.058 57.7147 60.9552 57.1636 61.5063C56.8964 61.7734 56.5414 61.9205 56.1638 61.9205C55.7859 61.9205 55.4309 61.7734 55.1641 61.5063L51.157 57.4576C50.7991 57.0957 50.2157 57.0929 49.8539 57.4507C49.4921 57.809 49.4892 58.3924 49.8471 58.7542L53.7929 62.7409C53.813 62.766 53.8345 62.79 53.8574 62.813C54.4086 63.3641 54.4086 64.2613 53.8574 64.8124C53.3059 65.3636 52.4088 65.3632 51.8576 64.8121L49.6706 62.6021C49.3124 62.2403 48.729 62.2371 48.3672 62.5953C48.0054 62.9532 48.0025 63.5366 48.3604 63.8984L50.4864 66.0463C50.5065 66.0714 50.528 66.0958 50.5513 66.1187C51.1025 66.6699 51.1025 67.567 50.5513 68.1182C50.0002 68.6697 49.1034 68.6693 48.5522 68.1182C48.4888 68.0547 48.4142 68.006 48.3432 67.9514C48.2829 67.9055 48.2671 67.8736 48.2973 67.8005C48.3277 67.7263 48.3733 67.6592 48.4038 67.5846C48.4375 67.5014 48.4647 67.4157 48.4913 67.3297C48.6325 66.8743 48.6741 66.3844 48.6107 65.9118C48.4888 65.005 47.99 64.1867 47.2341 63.6689C46.8257 63.3896 46.353 63.2063 45.8632 63.1375C46.1006 62.0904 45.8155 60.9552 45.074 60.1717C44.4637 59.5269 43.6393 59.1651 42.7525 59.1529C42.7202 59.1526 42.688 59.1526 42.6553 59.1529C42.6751 58.3067 42.3674 57.4658 41.784 56.8494C41.1733 56.2047 40.3489 55.8429 39.4625 55.8307C39.199 55.8271 38.9329 55.8551 38.6762 55.9142C38.5664 55.1508 38.1817 54.4444 37.599 53.9391C37.0199 53.4379 36.2916 53.1596 35.516 53.1488C34.6995 53.137 33.8973 53.4382 33.291 53.9858L29.7285 49.1854L38.2512 38.8023L40.9675 39.5453L37.4201 45.8051C36.9912 46.562 36.8829 47.4406 37.1149 48.2789C37.3469 49.1177 37.8912 49.8155 38.6482 50.2443C38.6955 50.2712 38.7432 50.2967 38.7916 50.3211C38.7952 50.3229 38.7988 50.3246 38.8027 50.3264C38.93 50.3899 39.0609 50.4444 39.1936 50.4903C39.8114 50.7044 40.4788 50.7277 41.1224 50.5498C41.9608 50.3178 42.6586 49.7731 43.0874 49.0165L45.3928 44.9484L49.5089 45.2403L60.4697 56.2007C61.0205 56.7522 61.0205 57.649 60.4693 58.2002ZM60.8512 53.9757L50.5689 43.6938C50.5495 43.674 50.5291 43.6554 50.5079 43.6378C50.3598 43.5145 50.1762 43.4399 49.9826 43.4263L44.9427 43.0687C44.5942 43.0447 44.2478 43.2301 44.0757 43.5338L41.4839 48.1079C41.2978 48.4364 40.9948 48.6727 40.6308 48.7734C40.2672 48.8742 39.8857 48.8269 39.5568 48.6407C39.2284 48.4546 38.9921 48.1516 38.8913 47.7877C38.7906 47.4237 38.8375 47.0422 39.024 46.7137L42.4839 40.6074L43.886 40.204C43.8953 40.2012 43.9043 40.1976 43.9136 40.1947L49.1464 38.6837H55.4689L63.362 48.7175L60.8512 53.9757ZM64.5693 47.271L57.2701 37.9869L60.9954 35.6178L67.8159 44.4773L64.5693 47.271Z" fill="white"/>
<path d="M51.4738 35.1104C51.7097 35.1104 51.9457 35.0204 52.1257 34.8404L58.421 28.5451C58.781 28.1851 58.781 27.6017 58.421 27.2417C58.0609 26.8817 57.4775 26.8817 57.1175 27.2417L50.8223 33.537C50.4622 33.897 50.4622 34.4804 50.8223 34.8404C51.0023 35.0204 51.2382 35.1104 51.4738 35.1104Z" fill="white"/>
<path d="M40.8744 34.8404C41.0544 35.0204 41.2903 35.1104 41.5263 35.1104C41.7618 35.1104 41.9978 35.0204 42.1778 34.8404C42.5378 34.4804 42.5378 33.897 42.1778 33.537L35.8825 27.2417C35.5225 26.8817 34.9391 26.8817 34.5791 27.2417C34.2191 27.6017 34.2191 28.1851 34.5791 28.5451L40.8744 34.8404Z" fill="white"/>
<path d="M46.4999 35.1101C47.0087 35.1101 47.4215 34.6973 47.4215 34.1885V28.9787C47.4215 28.4699 47.0087 28.0571 46.4999 28.0571C45.9911 28.0571 45.5784 28.4699 45.5784 28.9787V34.1885C45.5784 34.6973 45.9911 35.1101 46.4999 35.1101Z" fill="white"/>
<path d="M45.6495 25.6387C45.7958 25.9933 46.1605 26.2261 46.5452 26.206C46.9253 26.1863 47.2592 25.9295 47.3768 25.5677C47.4947 25.203 47.3664 24.7874 47.0609 24.5551C46.7492 24.3177 46.3146 24.3044 45.9887 24.5199C45.6251 24.7602 45.4842 25.2385 45.6495 25.6387Z" fill="white"/>
</g>
<defs>
<clipPath id="clip0">
<rect width="47" height="47" fill="white" transform="translate(23 24)"/>
</clipPath>
</defs>
</svg>
