<svg width="561" height="75" viewBox="0 0 561 75" fill="none" xmlns="http://www.w3.org/2000/svg">
<path d="M51.6122 35.6391H16V0.0195312H51.6122V35.6391Z" fill="#F1511B"/>
<path d="M90.9321 35.6391H55.3206V0.0195312H90.9321V35.6391Z" fill="#80CC28"/>
<path d="M51.6112 74.9806H16V39.3613H51.6112V74.9806Z" fill="#00ADEF"/>
<path d="M90.9321 74.9806H55.3206V39.3613H90.9321V74.9806Z" fill="#FBBC09"/>
<path d="M367.05 33.8493V27.6743H359.384V18.0744L359.126 18.1539L351.925 20.3577L351.783 20.4008V27.6746H340.417V23.6225C340.417 21.7357 340.839 20.2918 341.67 19.3288C342.496 18.3774 343.676 17.8937 345.182 17.8937C346.265 17.8937 347.386 18.1488 348.514 18.6519L348.797 18.7782V12.2751L348.664 12.2262C347.612 11.8478 346.18 11.6572 344.406 11.6572C342.17 11.6572 340.138 12.144 338.366 13.1086C336.593 14.0746 335.198 15.4536 334.221 17.207C333.248 18.9582 332.753 20.9809 332.753 23.2193V27.6743H327.415V33.8493H332.753V59.8637H340.417V33.8493H351.783V50.381C351.783 57.1895 354.994 60.6398 361.326 60.6398C362.366 60.6398 363.462 60.5179 364.58 60.2791C365.718 60.0338 366.493 59.7889 366.95 59.5274L367.051 59.4676V53.2355L366.739 53.4417C366.323 53.7189 365.805 53.9454 365.198 54.1139C364.588 54.2854 364.079 54.3713 363.684 54.3713C362.201 54.3713 361.103 53.9716 360.422 53.1825C359.734 52.3864 359.384 50.9941 359.384 49.0465V33.8493H367.05ZM310.301 54.3724C307.519 54.3724 305.326 53.4498 303.781 51.6327C302.226 49.8063 301.438 47.2024 301.438 43.8941C301.438 40.4809 302.226 37.8095 303.782 35.9508C305.328 34.1044 307.5 33.1673 310.239 33.1673C312.896 33.1673 315.011 34.0623 316.526 35.8289C318.049 37.6046 318.822 40.2547 318.822 43.7077C318.822 47.2031 318.095 49.8881 316.662 51.6843C315.239 53.4668 313.099 54.3724 310.301 54.3724ZM310.642 26.8989C305.335 26.8989 301.12 28.4542 298.115 31.5216C295.111 34.5895 293.588 38.8349 293.588 44.1411C293.588 49.181 295.075 53.2348 298.007 56.1882C300.939 59.1426 304.929 60.6391 309.866 60.6391C315.01 60.6391 319.141 59.0621 322.145 55.9521C325.149 52.8456 326.67 48.6402 326.67 43.458C326.67 38.3393 325.242 34.2552 322.425 31.3216C319.606 28.3866 315.641 26.8989 310.642 26.8989ZM281.232 26.8989C277.623 26.8989 274.637 27.8224 272.356 29.6433C270.061 31.4751 268.896 33.8775 268.896 36.7847C268.896 38.2958 269.148 39.6382 269.642 40.7767C270.14 41.919 270.91 42.9248 271.932 43.7688C272.947 44.6061 274.514 45.4831 276.591 46.3754C278.336 47.0938 279.638 47.7014 280.465 48.1803C281.273 48.6497 281.846 49.1215 282.17 49.5811C282.485 50.0308 282.645 50.6463 282.645 51.4058C282.645 53.5684 281.026 54.6207 277.694 54.6207C276.458 54.6207 275.049 54.3625 273.504 53.8537C271.971 53.3526 270.524 52.6187 269.214 51.6778L268.896 51.4496V58.8294L269.013 58.8837C270.097 59.3844 271.464 59.8066 273.075 60.1388C274.684 60.4713 276.145 60.6405 277.414 60.6405C281.332 60.6405 284.486 59.7125 286.788 57.8807C289.104 56.0364 290.278 53.5772 290.278 50.5695C290.278 48.3998 289.646 46.5391 288.401 45.0385C287.163 43.5501 285.016 42.1836 282.021 40.9758C279.635 40.0179 278.107 39.2228 277.476 38.6124C276.868 38.0228 276.56 37.1889 276.56 36.1329C276.56 35.1968 276.941 34.4468 277.723 33.8395C278.511 33.2291 279.608 32.9187 280.984 32.9187C282.261 32.9187 283.567 33.1204 284.867 33.5158C286.165 33.9112 287.305 34.4407 288.257 35.0884L288.57 35.3024V28.302L288.45 28.2504C287.572 27.8737 286.414 27.5513 285.007 27.2898C283.607 27.03 282.337 26.8989 281.232 26.8989ZM248.918 54.3724C246.137 54.3724 243.943 53.4498 242.398 51.6327C240.843 49.8063 240.056 47.2031 240.056 43.8941C240.056 40.4809 240.844 37.8095 242.4 35.9508C243.945 34.1044 246.117 33.1673 248.857 33.1673C251.513 33.1673 253.628 34.0623 255.144 35.8289C256.667 37.6046 257.439 40.2547 257.439 43.7077C257.439 47.2031 256.712 49.8881 255.279 51.6843C253.856 53.4668 251.717 54.3724 248.918 54.3724ZM249.26 26.8989C243.952 26.8989 239.736 28.4542 236.732 31.5216C233.729 34.5895 232.205 38.8349 232.205 44.1411C232.205 49.183 233.693 53.2348 236.625 56.1882C239.557 59.1426 243.547 60.6391 248.483 60.6391C253.627 60.6391 257.759 59.0621 260.763 55.9521C263.766 52.8456 265.288 48.6402 265.288 43.458C265.288 38.3393 263.86 34.2552 261.042 31.3216C258.222 28.3866 254.258 26.8989 249.26 26.8989ZM220.572 33.2488V27.6743H213.002V59.863H220.572V43.3972C220.572 40.5974 221.207 38.2972 222.46 36.5598C223.696 34.8432 225.344 33.9733 227.355 33.9733C228.037 33.9733 228.803 34.0857 229.632 34.3082C230.452 34.5293 231.046 34.7695 231.397 35.0222L231.715 35.2528V27.6193L231.592 27.5666C230.887 27.267 229.89 27.1159 228.628 27.1159C226.726 27.1159 225.023 27.7273 223.565 28.931C222.285 29.9891 221.36 31.4398 220.653 33.2488H220.572ZM199.445 26.8989C195.972 26.8989 192.875 27.6437 190.24 29.1121C187.6 30.5838 185.558 32.685 184.168 35.3568C182.785 38.0221 182.083 41.1354 182.083 44.6074C182.083 47.6488 182.764 50.4398 184.11 52.8996C185.456 55.3635 187.362 57.2911 189.774 58.628C192.183 59.9632 194.968 60.6401 198.05 60.6401C201.648 60.6401 204.72 59.9207 207.182 58.502L207.282 58.4449V51.508L206.964 51.7403C205.848 52.5531 204.601 53.2019 203.26 53.6693C201.922 54.1363 200.702 54.3724 199.633 54.3724C196.662 54.3724 194.278 53.4427 192.547 51.6099C190.812 49.7747 189.932 47.1977 189.932 43.9549C189.932 40.6918 190.85 38.0486 192.657 36.0982C194.46 34.1537 196.849 33.1673 199.758 33.1673C202.246 33.1673 204.67 34.01 206.964 35.6743L207.282 35.905V28.5958L207.179 28.5381C206.316 28.0547 205.139 27.6556 203.677 27.353C202.222 27.051 200.798 26.8989 199.445 26.8989ZM176.869 27.6746H169.299V59.863H176.869V27.6746ZM173.161 13.9622C171.916 13.9622 170.829 14.3864 169.936 15.2271C169.04 16.0701 168.585 17.1315 168.585 18.3842C168.585 19.6172 169.034 20.6593 169.922 21.4799C170.804 22.2981 171.894 22.7129 173.162 22.7129C174.429 22.7129 175.523 22.2981 176.416 21.4813C177.314 20.6593 177.77 19.6175 177.77 18.3842C177.77 17.1754 177.327 16.1248 176.453 15.261C175.58 14.399 174.472 13.9622 173.161 13.9622ZM154.273 25.2997V59.863H161.999V14.9475H151.306L137.715 48.3094L124.526 14.9475H113.398V59.8626H120.658V25.2963H120.907L134.835 59.863H140.314L154.024 25.2997H154.273Z" fill="white"/>
</svg>
