<svg xmlns="http://www.w3.org/2000/svg" width="49" height="49" fill="none" viewBox="0 0 49 49">
    <circle cx="24.5" cy="24.5" r="24" stroke="#fff"/>
    <path fill="#fff" d="M24.5 13.192c-3.066 0-3.443.025-4.649.075-1.206.05-2.035.252-2.739.528-.754.277-1.432.729-2.01 1.307-.578.553-1.005 1.256-1.307 2.01-.276.729-.477 1.533-.527 2.74-.05 1.205-.076 1.582-.076 4.673 0 3.066 0 3.468.076 4.649.05 1.206.25 2.01.527 2.739.277.753.729 1.432 1.307 2.01.578.578 1.256 1.03 2.01 1.307.729.276 1.533.477 2.74.527 1.205.05 1.582.076 4.648.076s3.468-.026 4.649-.076c1.206-.05 2.01-.251 2.739-.527 1.507-.578 2.713-1.784 3.317-3.317.276-.73.477-1.533.527-2.74.05-1.205.076-1.582.076-4.648s-.026-3.468-.076-4.674c-.05-1.206-.251-2.035-.527-2.739-.277-.754-.73-1.432-1.307-2.01-.553-.578-1.257-1.03-2.01-1.307-.73-.276-1.533-.477-2.74-.527-1.206-.076-1.582-.076-4.648-.076zm0 2.035c3.015 0 3.367.026 4.573.076 1.106.05 1.709.226 2.086.402.503.176.93.477 1.307.854.377.377.653.804.854 1.307.15.402.327 1.005.377 2.11.05 1.182.075 1.559.075 4.574 0 3.015-.025 3.367-.075 4.573-.05 1.106-.226 1.71-.377 2.086-.377.98-1.156 1.759-2.161 2.136-.402.15-1.005.352-2.086.402-1.18.05-1.558.075-4.573.075-3.015 0-3.367-.025-4.573-.075-1.106-.05-1.71-.226-2.111-.402-.503-.176-.93-.477-1.307-.854-.377-.377-.653-.805-.854-1.307-.151-.402-.327-1.005-.377-2.086-.05-1.206-.075-1.558-.075-4.573 0-3.015 0-3.367.075-4.573.05-1.106.226-1.71.377-2.111.176-.503.477-.93.854-1.307.377-.377.804-.653 1.307-.854.402-.15 1.005-.352 2.11-.402 1.182-.05 1.559-.05 4.574-.05z"/>
    <path fill="#fff" d="M24.5 28.244c-2.086 0-3.77-1.684-3.77-3.77 0-2.085 1.684-3.768 3.77-3.768 2.085 0 3.769 1.683 3.769 3.769 0 2.085-1.709 3.769-3.77 3.769zm0-9.574c-3.217 0-5.805 2.588-5.805 5.805 0 3.216 2.588 5.804 5.805 5.804 3.216 0 5.804-2.588 5.804-5.804 0-3.217-2.613-5.805-5.804-5.805zM31.888 18.444c0 .377-.126.703-.402.955-.277.276-.578.402-.955.402s-.704-.126-.955-.402c-.251-.277-.402-.578-.402-.955s.125-.704.402-.955c.276-.277.578-.402.955-.402s.703.125.955.402c.251.276.402.578.402.955z"/>
</svg>
