<svg width="26" height="26" viewBox="0 0 26 26" fill="none" xmlns="http://www.w3.org/2000/svg">
<circle cx="13" cy="13" r="12.5" stroke="white"/>
<path d="M18.9969 17.9998V17.9993H18.9999V13.9651C18.9999 11.9915 18.5364 10.4712 16.0194 10.4712C14.8094 10.4712 13.9974 11.0799 13.6659 11.6569H13.6309V10.6554H11.2444V17.9993H13.7294V14.3629C13.7294 13.4054 13.9274 12.4796 15.2209 12.4796C16.4954 12.4796 16.5144 13.5723 16.5144 14.4243V17.9998H18.9969Z" fill="white"/>
<path d="M7.198 10.6562H9.686V18.0001H7.198V10.6562Z" fill="white"/>
<path d="M8.441 7C7.6455 7 7 7.59171 7 8.32092C7 9.05013 7.6455 9.65421 8.441 9.65421C9.2365 9.65421 9.882 9.05013 9.882 8.32092C9.8815 7.59171 9.236 7 8.441 7V7Z" fill="white"/>
</svg>
